<svg xmlns="http://www.w3.org/2000/svg" width="183.515" height="140" viewBox="0 0 183.515 140">
    <defs>
        <linearGradient id="linear-gradient" x1=".19" x2="1.052" y1=".644" y2=".015" gradientUnits="objectBoundingBox">
            <stop offset="0" stop-color="#03604a"/>
            <stop offset=".535" stop-color="#0aae8b"/>
            <stop offset=".981" stop-color="#36e0b8"/>
        </linearGradient>
        <style>
            .cls-2{fill:#0aae8b}.cls-4{fill:#03604a}.cls-5{fill:#fff}
        </style>
    </defs>
    <g id="enjoy" transform="translate(-649.491 -58.958)">
        <path id="Path_9593" fill="url(#linear-gradient)" d="M664.514 99.051C659.7 45.862 755.1 71.67 780.893 80.866c19.1 6.813 44.5 12.743 42.111 47.487-1.02 14.829-2.347 31.985-14.355 39.922-22.4 14.806-102.336 44.681-122 9.827-14.883-26.371-19.732-52.525-22.135-79.051z" data-name="Path 9593"/>
        <path id="Path_9594" d="M650.293 163.6l-.8-.065q.1-1.168.183-2.291l.8.063q-.087 1.129-.183 2.293zm.356-4.588l-.8-.058q.084-1.17.16-2.291l.8.054q-.077 1.128-.16 2.3zm.307-4.593l-.8-.048q.072-1.17.132-2.293l.8.044q-.061 1.13-.132 2.302zm.245-4.6l-.8-.036c.035-.78.067-1.543.094-2.293l.8.029q-.04 1.136-.095 2.308zm.167-4.6l-.8-.022q.03-1.165.048-2.294l.8.012q-.016 1.141-.048 2.311zm.07-4.608h-.8v-.732q0-.786-.006-1.563l.8-.006q.008.778.007 1.569zm-.843-4.591q-.022-1.147-.06-2.292l.805-.026c.024.767.045 1.533.06 2.3zm-.145-4.586q-.048-1.14-.109-2.293l.8-.042q.061 1.158.109 2.3zm-.238-4.585q-.069-1.131-.147-2.291l.8-.055q.078 1.166.147 2.3zm-.308-4.583q-.082-1.125-.172-2.29l.8-.063c.06.78.118 1.543.173 2.295z" class="cls-2" data-name="Path 9594"/>
        <path id="Path_9595" fill="#36e0b8" d="M833.006 172.732l-.837-.075c-63.2-5.782-118.7-6.092-174.657-.979l-.638.059.01-.641c.35-19.922-.755-39.584-2.125-61.378l-.034-.542.539-.064c1.963-.239 3.944-.6 5.86-.95.74-.133 3.936-.685 4.241-.724l.132 1.142s-3.378.572-4.166.714c-1.76.315-3.573.651-5.391.891 1.341 21.371 2.418 40.709 2.1 60.291 55.565-5.039 110.7-4.734 173.392.959q-1.613-5.6-3.229-11.135c-8.791-30.193-17.1-58.724-19.671-90.261l-1.961.642c-10.579 3.462-16.892 5.5-27.765 9.459l-1.9-.638c10.891-3.962 18.717-6.449 29.3-9.914l3.35-1.1.057.73c2.495 31.708 10.845 60.391 19.686 90.757q1.73 5.94 3.463 11.947z" data-name="Path 9595"/>
        <path id="Path_9596" d="M721.451 198.958h-.072c-.362 0-.723 0-1.083-.007l.011-.8q.534.007 1.072.007h.072zm1.155-.008l-.011-.8c.381-.005.762-.013 1.145-.023l.021.805c-.386.005-.771.012-1.155.018zm-3.465-.021q-.58-.017-1.155-.04l.034-.8c.379.015.76.029 1.143.039zm5.774-.04l-.031-.8q.57-.022 1.144-.051l.04.8c-.385.018-.768.036-1.153.051zm-8.084-.057c-.386-.023-.77-.047-1.153-.076l.059-.8q.569.042 1.141.075zm10.39-.058l-.049-.8q.57-.036 1.143-.076l.057.8c-.385.028-.772.052-1.151.076zm-12.7-.113q-.578-.052-1.151-.115l.087-.8c.377.042.756.078 1.137.113zm15-.053l-.066-.8q.569-.048 1.141-.1l.074.8c-.382.036-.77.069-1.147.1zm-17.3-.2q-.576-.073-1.147-.158l.117-.8q.563.082 1.131.154zm19.6-.013l-.081-.8q.568-.057 1.14-.121l.088.8q-.576.066-1.148.126zm2.293-.253l-.095-.8 1.138-.141.1.8zm-24.179-.072l-1.139-.2.149-.79 1.124.2zm26.467-.219l-.109-.8c.378-.05.757-.1 1.136-.157l.114.8c-.382.055-.762.106-1.143.16zm-28.742-.211q-.568-.122-1.131-.253l.185-.784q.553.13 1.113.249zm31.024-.117l-.121-.8q.567-.085 1.134-.175l.126.8q-.571.092-1.14.178zm2.274-.359l-.132-.8q.564-.091 1.129-.19l.136.794q-.568.106-1.134.199zm-35.558-.054c-.376-.1-.749-.2-1.119-.306l.223-.774q.546.157 1.1.3zm37.818-.333l-.141-.792q.563-.1 1.126-.205l.146.792q-.561.105-1.127.205zm-40.048-.308q-.554-.174-1.1-.362l.262-.761q.537.185 1.082.356zm42.309-.108l-.151-.792c.374-.07.749-.143 1.124-.216l.155.789c-.372.074-.748.146-1.124.219zm2.255-.443l-.158-.79q.559-.113 1.121-.229l.164.787c-.372.08-.747.156-1.123.232zm-46.757-.205q-.545-.2-1.081-.423l.3-.745q.525.215 1.059.415zm49.009-.261l-.167-.788 1.12-.24.171.786zm2.247-.488l-.174-.786 1.118-.251.177.785zm-53.405-.128q-.532-.237-1.055-.486l.348-.727c.341.163.685.323 1.033.477zm55.648-.38l-.182-.785 1.117-.259.184.783zm2.238-.526l-.187-.784 1.115-.268.189.782zm-59.978-.1q-.516-.268-1.021-.549l.392-.7q.495.277 1 .538zm62.212-.445l-.192-.783 1.113-.276.2.781zm-64.237-.687q-.5-.3-.986-.615l.437-.676q.477.309.963.6zm-1.952-1.263q-.477-.333-.944-.681l.482-.644q.454.34.922.664zm-1.866-1.393c-.3-.244-.6-.491-.9-.745l.524-.611q.434.372.877.728zm-1.767-1.518q-.425-.393-.842-.8l.565-.575q.406.4.823.784zm-1.656-1.63q-.4-.419-.787-.856l.6-.535q.379.428.769.838zm-1.544-1.737q-.371-.444-.729-.9l.635-.494c.234.3.471.6.712.883zm-1.429-1.833c-.226-.311-.45-.626-.669-.948l.664-.454c.215.314.434.624.656.927zm-1.31-1.916q-.31-.486-.612-.987l.69-.414c.2.327.4.65.6.966zM682 179.42q-.282-.5-.554-1.019l.712-.375c.178.338.359.672.544 1zm-1.081-2.053q-.255-.515-.5-1.046l.731-.337q.24.521.491 1.027z" class="cls-2" data-name="Path 9596"/>
        <path id="Path_9597" d="M817.145 82.952l-.242-2.286.8-.083c.076.735.155 1.493.241 2.283zm-.47-4.575c-.074-.781-.146-1.541-.212-2.291l.8-.071c.067.748.136 1.506.212 2.285zm-.4-4.584c-.06-.761-.116-1.522-.168-2.295l.8-.055c.054.77.11 1.528.169 2.288zM783.9 70.914l-.282-.753c.717-.269 1.438-.537 2.155-.8l.281.755q-1.074.395-2.154.798zm4.31-1.6l-.277-.756q1.08-.4 2.161-.788l.275.757-2.156.79zm27.743-.115c-.044-.745-.087-1.507-.127-2.3l.8-.042c.041.789.084 1.55.127 2.292zm-23.423-1.451l-.271-.758q1.084-.388 2.167-.773l.269.758-2.162.776zm4.332-1.536l-.265-.759q1.086-.381 2.174-.757l.262.761-2.168.758zm4.344-1.5l-.261-.762q1.09-.372 2.18-.739l.257.763-2.173.739zm14.507-.106c-.033-.737-.068-1.5-.1-2.3l.8-.034c.033.795.066 1.558.1 2.294zm-10.152-1.362l-.255-.764c.728-.241 1.456-.483 2.187-.721l.25.764-2.179.722zm4.367-1.432l-.248-.766c.73-.237 1.46-.47 2.19-.7l.246.767q-1.092.346-2.185.7zm4.379-1.4l-.243-.768q.861-.27 1.72-.536l.5-.155.039 1.023-.709.027z" class="cls-2" data-name="Path 9597"/>
        <path id="Path_9598" d="M700.433 160.043a13.387 13.387 0 0 1-5.592-.006 7.718 7.718 0 0 1-4.264-2.542 8.9 8.9 0 0 1-1.864-5.438 17.268 17.268 0 0 1 2.287-9.522 20.112 20.112 0 0 1 7.817-7.619q-3.381-.846-4.055-2.613a10.228 10.228 0 0 1-.741-2.96 10.725 10.725 0 0 1 .44-3.493 23.131 23.131 0 0 1 3.031-6.516 26.635 26.635 0 0 1 4.884-5.614 12.1 12.1 0 0 1 5.49-2.913q4.137-.81 6.016 2.47a13.2 13.2 0 0 1 1.445 5.776 23.638 23.638 0 0 1-.281 5.271 1.454 1.454 0 0 1-.466.89 1.615 1.615 0 0 1-.736.4 1.089 1.089 0 0 1-1.168-.314 1.218 1.218 0 0 1-.315-.752 11.468 11.468 0 0 1 .106-1.348 25.166 25.166 0 0 0 .095-3.726 19.594 19.594 0 0 0-.355-2.825 5.583 5.583 0 0 0-.847-2.14 1.417 1.417 0 0 0-1.534-.619q-3.267.639-6.985 7.336-2.645 4.739-2.462 8.018.23 4.086 5.265 3.1a1.149 1.149 0 0 1 .982.215 1.134 1.134 0 0 1 .443.862 1.538 1.538 0 0 1-.336 1.046 1.518 1.518 0 0 1-.937.59 10.341 10.341 0 0 0-4.441 2.166 17.662 17.662 0 0 0-3.727 4.075 13.587 13.587 0 0 0-1.893 4.35 15.642 15.642 0 0 0-.454 4.611 8.413 8.413 0 0 0 1.126 4.165 4.611 4.611 0 0 0 2.534 1.962 6.893 6.893 0 0 0 3.386.121q7.134-1.4 13.445-13.213a1.225 1.225 0 0 1 .616-.633c.209-.061.333-.1.373-.1a1.408 1.408 0 0 1 .934.163.975.975 0 0 1 .519.879 1.739 1.739 0 0 1-.193.882 50.027 50.027 0 0 1-4.19 6.925 23.349 23.349 0 0 1-5.53 5.438 20.712 20.712 0 0 1-7.868 3.195z" class="cls-4" data-name="Path 9598"/>
        <path id="Path_9599" d="M736.281 146.394q-4.258.834-5.39-3.165a37.653 37.653 0 0 1-1.137-7.857 34.077 34.077 0 0 0-.36-3.743q-.22-1.237-.7-1.144-.78.153-2.567 4.512-.427 1.019-1.414 3.954-2.647 7.935-2.808 8.328-.726 1.678-1.564 1.843a10.111 10.111 0 0 1-1.13.116q-.8.051-1.6.043a5.427 5.427 0 0 1-1.265-.13.823.823 0 0 1-.681-.8 5.923 5.923 0 0 1 .128-1.5l4.366-22.741q.632-3.348 4.5-4.106 1.05-.206 1.093.57.036.657-2.2 13.845a14.709 14.709 0 0 0 .762-1.837 32.358 32.358 0 0 1 2.193-4.409q2.488-4.285 4.977-4.772 2.369-.464 3.694 3.739a52.2 52.2 0 0 1 1.6 8.639q.321 2.469.636 4.337.525 2.881 1.364 2.717a3.976 3.976 0 0 0 .9-.387 3.991 3.991 0 0 1 .9-.388.971.971 0 0 1 1 .271 1.585 1.585 0 0 1 .373.968q.114 1.965-5.67 3.097z" class="cls-4" data-name="Path 9599"/>
        <path id="Path_9600" d="M740.439 164.964a5.348 5.348 0 0 1-3.937-.481 3.5 3.5 0 0 1-1.651-2.977q-.223-4 2.861-9.272a26.362 26.362 0 0 1 6.78-8.02 123.456 123.456 0 0 0 .939-19.537 13.117 13.117 0 0 1 .214-2.951 3.1 3.1 0 0 1 1.362-1.94 10.734 10.734 0 0 1 3.686-1.294q1.348-.264 1.5 2.509a105.031 105.031 0 0 1 .01 11.031q-.268 6.053-.578 8.645a16.3 16.3 0 0 1 2.507-.7 1.149 1.149 0 0 1 .981.215 1.131 1.131 0 0 1 .442.863 1.48 1.48 0 0 1-.336 1.031 1.541 1.541 0 0 1-.937.575 14.356 14.356 0 0 0-3.038.956 65.653 65.653 0 0 1-1.819 8.39 41.4 41.4 0 0 1-3.332 8.461 8.086 8.086 0 0 1-5.654 4.496zm-1.792-2.784q1.379-.27 3.205-6.084a59.361 59.361 0 0 0 2.035-8.086 20.964 20.964 0 0 0-4.809 6.971 14.927 14.927 0 0 0-1.365 6.206c.044.775.354 1.106.934.993zm9.5-45.843q-1.559.306-1.656-1.424a9.4 9.4 0 0 1 .051-1.819 3.61 3.61 0 0 1 1.322-2.1 5.585 5.585 0 0 1 2.7-1.342q1.289-.253 1.346.761a8.052 8.052 0 0 1-.211 2.182 4.439 4.439 0 0 1-3.551 3.742z" class="cls-4" data-name="Path 9600"/>
        <path id="Path_9601" d="M762.091 141.343a3.816 3.816 0 0 1-3.4-.691 4.509 4.509 0 0 1-1.4-3.314 21.056 21.056 0 0 1 .954-6.789 3.1 3.1 0 0 1-2.152-.83 3.034 3.034 0 0 1-.89-2.1 8.11 8.11 0 0 1 1.094-4.284 19.761 19.761 0 0 1 3.168-4.313 23.087 23.087 0 0 1 4.213-3.508 12.391 12.391 0 0 1 4.261-1.844 4.133 4.133 0 0 1 3.757.788q1.389 1.25 1.592 4.888a26.736 26.736 0 0 1-1.762 10.233q-2.38 6.736-6.106 10.058a7.022 7.022 0 0 1-3.329 1.706zm2.2-4.531q.54-.106 1.327-1.195a18.686 18.686 0 0 0 1.774-2.97 34.282 34.282 0 0 0 2.3-6.027 22.262 22.262 0 0 0 .926-6.753q-.147-2.624-1.338-3.325a1.638 1.638 0 0 0-1.193-.189 9.522 9.522 0 0 0-3.746 1.834 22.9 22.9 0 0 0-3.645 3.381 14.375 14.375 0 0 0-2.244 3.227 4.867 4.867 0 0 0-.569 2.026q.064 1.164 1.207.97a38.807 38.807 0 0 1 1.426-3.746 4.52 4.52 0 0 1 2.56-2.461 18.431 18.431 0 0 1 2.98-.914 1.983 1.983 0 0 1 1.276.051.854.854 0 0 1 .435.759 1.724 1.724 0 0 1-.138.751 55.7 55.7 0 0 0-3.162 8.788 19.478 19.478 0 0 0-.728 4.6q.074 1.286.554 1.193z" class="cls-4" data-name="Path 9601"/>
        <path id="Path_9602" d="M783.7 150.075a4.221 4.221 0 0 1-2.758-.274 2.414 2.414 0 0 1-1.261-2.225q-.263-4.682 5.744-10.56a31.913 31.913 0 0 1 4.26-3.487 94.67 94.67 0 0 0 1.2-13.8q-3.852 14.562-9.969 15.758a3.214 3.214 0 0 1-2.927-.6 4.815 4.815 0 0 1-1.445-2.521 17.209 17.209 0 0 1-.46-3.075 33.144 33.144 0 0 1 .346-6.308 60.154 60.154 0 0 1 1.7-8.652 4.956 4.956 0 0 1 3.689-3.405q1.284-.342 2.332-.547.992-.195 1.047.82a8.43 8.43 0 0 1-.224 1.943q-.481 2.235-1.434 6.882a39.625 39.625 0 0 0-1.065 8.62q.1 1.7.875 1.547 1.169-.229 2.4-2.581a39.792 39.792 0 0 0 2.4-5.865q1.167-3.514 2.132-7.411a4.137 4.137 0 0 1 1.288-2.167 5.913 5.913 0 0 1 2.18-1.135q1.266-.368 2.616-.633.96-.187 1.144.424a5.924 5.924 0 0 1 .23 1.388 91.722 91.722 0 0 1-1.174 18.046q1.014-.289 2.064-.495 1.648-.322 1.723 1.019t-1.573 1.665a26.114 26.114 0 0 0-2.72.683q-3.094 15.132-12.36 16.946zm-.209-2.672q2.007-.393 3.563-4.014a37.116 37.116 0 0 0 2.029-6.546 23.118 23.118 0 0 0-2.075 1.913q-4.756 4.939-4.586 7.982.051.862 1.072.662z" class="cls-4" data-name="Path 9602"/>
        <path id="Path_9603" d="M804.2 133.975q-1.891.369-2.006-1.718a10.917 10.917 0 0 1 .121-2.164 4.382 4.382 0 0 1 1.6-2.574 6.8 6.8 0 0 1 3.259-1.6q1.469-.288 1.539.965l.01.178a8.173 8.173 0 0 1-.755 3.856 5.08 5.08 0 0 1-3.768 3.057zm1.158-10.175q-1.618.316-1.879-1.622l-.009-.149q-.429-7.693 4.761-27.611.924-3.557 3.651-4.091a2.954 2.954 0 0 1 2.335.281 1.755 1.755 0 0 1 .846 1.3q.045.806-2.506 9.956-1.492 5.3-2.6 10.066a43.281 43.281 0 0 0-1.229 8.109 3.6 3.6 0 0 1-1.194 2.495 4.542 4.542 0 0 1-2.175 1.266z" class="cls-4" data-name="Path 9603"/>
        <path id="Path_9604" d="M699.474 158.759a13.354 13.354 0 0 1-5.592-.006 7.717 7.717 0 0 1-4.264-2.541 8.9 8.9 0 0 1-1.864-5.438 17.275 17.275 0 0 1 2.286-9.522 20.116 20.116 0 0 1 7.818-7.619q-3.382-.846-4.055-2.613a10.211 10.211 0 0 1-.742-2.96 10.721 10.721 0 0 1 .441-3.493 23.129 23.129 0 0 1 3.03-6.516 26.669 26.669 0 0 1 4.885-5.614 12.1 12.1 0 0 1 5.489-2.913q4.137-.81 6.017 2.47a13.2 13.2 0 0 1 1.444 5.776 23.571 23.571 0 0 1-.281 5.27 1.449 1.449 0 0 1-.466.891 1.617 1.617 0 0 1-.735.4 1.091 1.091 0 0 1-1.169-.314 1.224 1.224 0 0 1-.315-.752 11.564 11.564 0 0 1 .107-1.348 25.174 25.174 0 0 0 .1-3.726 19.728 19.728 0 0 0-.356-2.825 5.577 5.577 0 0 0-.846-2.14 1.417 1.417 0 0 0-1.535-.619q-3.267.639-6.985 7.336-2.645 4.738-2.461 8.018.228 4.086 5.264 3.1a1.144 1.144 0 0 1 .982.215 1.13 1.13 0 0 1 .443.862 1.54 1.54 0 0 1-.336 1.046 1.518 1.518 0 0 1-.937.59 10.333 10.333 0 0 0-4.44 2.166 17.642 17.642 0 0 0-3.728 4.075 13.632 13.632 0 0 0-1.893 4.35 15.71 15.71 0 0 0-.454 4.611 8.414 8.414 0 0 0 1.126 4.165 4.6 4.6 0 0 0 2.535 1.961 6.876 6.876 0 0 0 3.385.122q7.134-1.4 13.445-13.213a1.225 1.225 0 0 1 .616-.633c.21-.061.333-.1.374-.1a1.406 1.406 0 0 1 .933.163.972.972 0 0 1 .519.879 1.718 1.718 0 0 1-.193.882 50.02 50.02 0 0 1-4.19 6.925 23.361 23.361 0 0 1-5.529 5.438 20.707 20.707 0 0 1-7.873 3.194z" class="cls-2" data-name="Path 9604"/>
        <path id="Path_9605" d="M735.322 145.111q-4.259.834-5.39-3.166a37.575 37.575 0 0 1-1.136-7.856 34.564 34.564 0 0 0-.36-3.743q-.222-1.237-.7-1.144-.78.153-2.567 4.512-.428 1.019-1.415 3.954-2.648 7.935-2.808 8.328-.726 1.679-1.564 1.843a10.077 10.077 0 0 1-1.13.116q-.8.051-1.6.043a5.431 5.431 0 0 1-1.265-.13.824.824 0 0 1-.681-.8 5.97 5.97 0 0 1 .128-1.5l4.367-22.741q.63-3.348 4.5-4.106 1.05-.206 1.093.57.038.657-2.2 13.845a15.042 15.042 0 0 0 .761-1.837 32.378 32.378 0 0 1 2.194-4.409q2.487-4.286 4.976-4.772 2.368-.463 3.694 3.738a52.211 52.211 0 0 1 1.6 8.64q.32 2.469.635 4.337.525 2.882 1.364 2.717a3.956 3.956 0 0 0 .9-.387 3.99 3.99 0 0 1 .9-.388.973.973 0 0 1 1 .271 1.59 1.59 0 0 1 .372.968q.118 1.965-5.668 3.097z" class="cls-2" data-name="Path 9605"/>
        <path id="Path_9606" d="M739.48 163.681a5.349 5.349 0 0 1-3.937-.481 3.493 3.493 0 0 1-1.65-2.977q-.223-4 2.86-9.273a26.359 26.359 0 0 1 6.781-8.019 123.576 123.576 0 0 0 .938-19.537 13.182 13.182 0 0 1 .214-2.951 3.1 3.1 0 0 1 1.362-1.94 10.693 10.693 0 0 1 3.686-1.294q1.348-.264 1.5 2.509a105.022 105.022 0 0 1 .011 11.031q-.269 6.053-.579 8.645a16.3 16.3 0 0 1 2.507-.7 1.152 1.152 0 0 1 .982.215 1.133 1.133 0 0 1 .441.863 1.48 1.48 0 0 1-.336 1.031 1.545 1.545 0 0 1-.937.575 14.355 14.355 0 0 0-3.038.956 65.477 65.477 0 0 1-1.819 8.39 41.305 41.305 0 0 1-3.332 8.46 8.085 8.085 0 0 1-5.654 4.497zm-1.792-2.784q1.379-.27 3.206-6.084a59.333 59.333 0 0 0 2.034-8.086 20.979 20.979 0 0 0-4.809 6.971 14.927 14.927 0 0 0-1.365 6.206c.046.775.354 1.106.934.996zm9.5-45.843q-1.559.3-1.656-1.424a9.488 9.488 0 0 1 .051-1.819 3.62 3.62 0 0 1 1.322-2.1 5.6 5.6 0 0 1 2.7-1.342q1.289-.252 1.345.762a8.009 8.009 0 0 1-.211 2.182 4.438 4.438 0 0 1-3.55 3.741z" class="cls-2" data-name="Path 9606"/>
        <path id="Path_9607" d="M761.132 140.059a3.811 3.811 0 0 1-3.4-.69 4.516 4.516 0 0 1-1.4-3.314 21.062 21.062 0 0 1 .955-6.789 3.1 3.1 0 0 1-2.153-.83 3.034 3.034 0 0 1-.89-2.1 8.119 8.119 0 0 1 1.094-4.284 19.8 19.8 0 0 1 3.168-4.313 23.124 23.124 0 0 1 4.213-3.508 12.4 12.4 0 0 1 4.261-1.844 4.133 4.133 0 0 1 3.757.788q1.389 1.25 1.593 4.888a26.739 26.739 0 0 1-1.763 10.233q-2.381 6.736-6.105 10.058a7.018 7.018 0 0 1-3.33 1.705zm2.2-4.53q.54-.107 1.327-1.2a18.618 18.618 0 0 0 1.774-2.97 34.328 34.328 0 0 0 2.3-6.027 22.262 22.262 0 0 0 .925-6.753q-.147-2.624-1.338-3.325a1.637 1.637 0 0 0-1.193-.189 9.529 9.529 0 0 0-3.746 1.834 22.947 22.947 0 0 0-3.645 3.381 14.375 14.375 0 0 0-2.244 3.227 4.882 4.882 0 0 0-.569 2.026q.064 1.164 1.207.97a38.705 38.705 0 0 1 1.426-3.746 4.519 4.519 0 0 1 2.561-2.461 18.393 18.393 0 0 1 2.979-.914 1.983 1.983 0 0 1 1.276.051.854.854 0 0 1 .436.759 1.727 1.727 0 0 1-.139.751 55.782 55.782 0 0 0-3.161 8.788 19.425 19.425 0 0 0-.728 4.6q.075 1.292.554 1.198z" class="cls-2" data-name="Path 9607"/>
        <path id="Path_9608" d="M782.744 148.792a4.218 4.218 0 0 1-2.757-.274 2.415 2.415 0 0 1-1.262-2.225q-.261-4.683 5.745-10.56a31.906 31.906 0 0 1 4.259-3.487 94.807 94.807 0 0 0 1.2-13.8q-3.854 14.561-9.97 15.758a3.219 3.219 0 0 1-2.927-.6 4.815 4.815 0 0 1-1.445-2.521 17.211 17.211 0 0 1-.459-3.075 33.221 33.221 0 0 1 .345-6.308 60.2 60.2 0 0 1 1.7-8.653 4.958 4.958 0 0 1 3.689-3.4q1.282-.34 2.332-.546.99-.2 1.046.82a8.318 8.318 0 0 1-.224 1.943q-.482 2.235-1.434 6.882a39.538 39.538 0 0 0-1.064 8.619q.094 1.7.874 1.548 1.168-.229 2.4-2.581a39.884 39.884 0 0 0 2.4-5.866q1.168-3.513 2.132-7.411a4.133 4.133 0 0 1 1.289-2.166 5.885 5.885 0 0 1 2.179-1.135q1.268-.368 2.616-.633.96-.187 1.144.424a5.87 5.87 0 0 1 .23 1.387 91.628 91.628 0 0 1-1.174 18.046q1.014-.288 2.064-.494 1.648-.322 1.724 1.019t-1.574 1.665a26.176 26.176 0 0 0-2.72.683q-3.093 15.127-12.358 16.941zm-.209-2.672q2.009-.393 3.564-4.014a37.27 37.27 0 0 0 2.029-6.547 23.149 23.149 0 0 0-2.076 1.914q-4.755 4.939-4.586 7.982.05.864 1.069.665z" class="cls-2" data-name="Path 9608"/>
        <path id="Path_9609" d="M803.242 132.692q-1.89.369-2.006-1.718a10.928 10.928 0 0 1 .122-2.164 4.379 4.379 0 0 1 1.6-2.574 6.807 6.807 0 0 1 3.26-1.6q1.469-.287 1.538.965l.01.179a8.183 8.183 0 0 1-.754 3.856 5.086 5.086 0 0 1-3.77 3.056zm1.158-10.175q-1.619.316-1.879-1.622l-.008-.149q-.43-7.694 4.761-27.611.924-3.557 3.65-4.091a2.952 2.952 0 0 1 2.335.281 1.754 1.754 0 0 1 .846 1.3q.045.805-2.505 9.956-1.492 5.3-2.6 10.066a43.281 43.281 0 0 0-1.229 8.109 3.6 3.6 0 0 1-1.194 2.5 4.538 4.538 0 0 1-2.177 1.261z" class="cls-2" data-name="Path 9609"/>
        <path id="Path_9610" d="M698.267 157.338a13.387 13.387 0 0 1-5.592-.006 7.718 7.718 0 0 1-4.264-2.542 8.9 8.9 0 0 1-1.864-5.438 17.272 17.272 0 0 1 2.286-9.521 20.124 20.124 0 0 1 7.818-7.62q-3.383-.845-4.055-2.613a10.206 10.206 0 0 1-.742-2.959 10.722 10.722 0 0 1 .441-3.493 23.135 23.135 0 0 1 3.03-6.517 26.69 26.69 0 0 1 4.885-5.614 12.107 12.107 0 0 1 5.49-2.915q4.137-.81 6.017 2.47a13.205 13.205 0 0 1 1.444 5.777 23.571 23.571 0 0 1-.281 5.27 1.447 1.447 0 0 1-.466.89 1.608 1.608 0 0 1-.735.4 1.089 1.089 0 0 1-1.169-.314 1.22 1.22 0 0 1-.315-.752 11.544 11.544 0 0 1 .107-1.347 25.18 25.18 0 0 0 .095-3.727 19.7 19.7 0 0 0-.356-2.824 5.569 5.569 0 0 0-.846-2.14 1.417 1.417 0 0 0-1.535-.62q-3.267.641-6.985 7.336-2.645 4.738-2.461 8.019.228 4.084 5.264 3.1a1.151 1.151 0 0 1 .982.215 1.131 1.131 0 0 1 .443.863 1.613 1.613 0 0 1-1.273 1.636 10.33 10.33 0 0 0-4.44 2.165 17.648 17.648 0 0 0-3.728 4.076 13.632 13.632 0 0 0-1.893 4.35 15.705 15.705 0 0 0-.454 4.61 8.414 8.414 0 0 0 1.126 4.166 4.608 4.608 0 0 0 2.535 1.961 6.876 6.876 0 0 0 3.385.121q7.134-1.4 13.445-13.213a1.229 1.229 0 0 1 .616-.633c.21-.06.333-.1.374-.1a1.4 1.4 0 0 1 .933.164.971.971 0 0 1 .519.878 1.713 1.713 0 0 1-.193.882 49.909 49.909 0 0 1-4.19 6.925 23.326 23.326 0 0 1-5.529 5.438 20.692 20.692 0 0 1-7.869 3.196z" class="cls-5" data-name="Path 9610"/>
        <path id="Path_9611" d="M734.115 143.69q-4.258.832-5.39-3.166a37.6 37.6 0 0 1-1.136-7.857 34.622 34.622 0 0 0-.36-3.743q-.222-1.237-.7-1.144-.78.153-2.567 4.512-.427 1.018-1.415 3.955-2.648 7.934-2.808 8.327-.726 1.68-1.564 1.844a9.9 9.9 0 0 1-1.13.115q-.8.051-1.6.043a5.442 5.442 0 0 1-1.265-.129.825.825 0 0 1-.681-.8 5.923 5.923 0 0 1 .128-1.5l4.367-22.74q.63-3.35 4.5-4.106 1.05-.205 1.093.57.037.656-2.2 13.845a14.7 14.7 0 0 0 .762-1.838 32.483 32.483 0 0 1 2.193-4.408q2.488-4.286 4.977-4.773 2.368-.463 3.694 3.739a52.216 52.216 0 0 1 1.6 8.639q.32 2.471.635 4.337.525 2.883 1.364 2.718a3.927 3.927 0 0 0 .9-.388 3.973 3.973 0 0 1 .9-.387.971.971 0 0 1 1 .271 1.587 1.587 0 0 1 .372.967q.116 1.964-5.669 3.097z" class="cls-5" data-name="Path 9611"/>
        <path id="Path_9612" d="M738.273 162.26a5.354 5.354 0 0 1-3.937-.481 3.493 3.493 0 0 1-1.65-2.978q-.223-4 2.86-9.272a26.358 26.358 0 0 1 6.781-8.019 123.589 123.589 0 0 0 .938-19.538 13.183 13.183 0 0 1 .214-2.951 3.092 3.092 0 0 1 1.362-1.939 10.711 10.711 0 0 1 3.686-1.295q1.349-.264 1.5 2.51a105.006 105.006 0 0 1 .011 11.031q-.269 6.053-.579 8.644a16.3 16.3 0 0 1 2.507-.7 1.152 1.152 0 0 1 .982.215 1.133 1.133 0 0 1 .441.863 1.478 1.478 0 0 1-.336 1.03 1.547 1.547 0 0 1-.937.576 14.357 14.357 0 0 0-3.038.956 65.537 65.537 0 0 1-1.819 8.39 41.328 41.328 0 0 1-3.332 8.46 8.09 8.09 0 0 1-5.654 4.498zm-1.792-2.785q1.379-.27 3.206-6.084a59.289 59.289 0 0 0 2.034-8.085 20.966 20.966 0 0 0-4.809 6.97 14.927 14.927 0 0 0-1.365 6.206c.044.776.353 1.107.934.993zm9.5-45.842q-1.559.3-1.656-1.425a9.482 9.482 0 0 1 .051-1.818 3.617 3.617 0 0 1 1.322-2.1 5.593 5.593 0 0 1 2.7-1.342q1.289-.252 1.345.762a8 8 0 0 1-.211 2.181 4.438 4.438 0 0 1-3.55 3.742z" class="cls-5" data-name="Path 9612"/>
        <path id="Path_9613" d="M759.925 138.638a3.811 3.811 0 0 1-3.4-.691 4.512 4.512 0 0 1-1.4-3.314 21.053 21.053 0 0 1 .955-6.788 3.106 3.106 0 0 1-2.153-.83 3.036 3.036 0 0 1-.89-2.1 8.121 8.121 0 0 1 1.094-4.284 19.79 19.79 0 0 1 3.168-4.312 23.167 23.167 0 0 1 4.213-3.509 12.4 12.4 0 0 1 4.261-1.843 4.133 4.133 0 0 1 3.757.787q1.389 1.25 1.592 4.888a26.716 26.716 0 0 1-1.762 10.233q-2.38 6.736-6.1 10.058a7.029 7.029 0 0 1-3.335 1.705zm2.2-4.531q.54-.1 1.327-1.194a18.613 18.613 0 0 0 1.774-2.97 34.327 34.327 0 0 0 2.3-6.027 22.264 22.264 0 0 0 .925-6.753q-.147-2.624-1.338-3.326a1.637 1.637 0 0 0-1.193-.188 9.525 9.525 0 0 0-3.746 1.833 22.994 22.994 0 0 0-3.645 3.381 14.352 14.352 0 0 0-2.244 3.228 4.881 4.881 0 0 0-.569 2.026q.065 1.163 1.207.969a38.664 38.664 0 0 1 1.426-3.745 4.519 4.519 0 0 1 2.561-2.461 18.513 18.513 0 0 1 2.979-.915 1.982 1.982 0 0 1 1.276.052.853.853 0 0 1 .436.759 1.74 1.74 0 0 1-.139.75 55.816 55.816 0 0 0-3.161 8.789 19.416 19.416 0 0 0-.728 4.6c.05.859.235 1.255.554 1.192z" class="cls-5" data-name="Path 9613"/>
        <path id="Path_9614" d="M781.537 147.371a4.211 4.211 0 0 1-2.757-.275 2.415 2.415 0 0 1-1.262-2.225q-.261-4.682 5.745-10.56a31.819 31.819 0 0 1 4.259-3.486 94.8 94.8 0 0 0 1.2-13.8q-3.853 14.562-9.97 15.758a3.216 3.216 0 0 1-2.927-.6 4.819 4.819 0 0 1-1.445-2.521 17.213 17.213 0 0 1-.459-3.075 33.217 33.217 0 0 1 .345-6.308 60.193 60.193 0 0 1 1.7-8.653 4.955 4.955 0 0 1 3.688-3.4q1.284-.342 2.333-.547.99-.193 1.046.82a8.3 8.3 0 0 1-.224 1.943q-.481 2.235-1.434 6.883a39.535 39.535 0 0 0-1.064 8.619q.094 1.7.874 1.547 1.168-.228 2.4-2.58a39.93 39.93 0 0 0 2.4-5.866q1.168-3.515 2.132-7.411a4.145 4.145 0 0 1 1.288-2.167 5.91 5.91 0 0 1 2.18-1.134q1.267-.369 2.616-.633.96-.187 1.144.424a5.862 5.862 0 0 1 .23 1.387 91.638 91.638 0 0 1-1.174 18.046q1.014-.29 2.064-.494 1.648-.323 1.724 1.019t-1.574 1.664a25.923 25.923 0 0 0-2.72.684q-3.095 15.127-12.358 16.941zm-.209-2.673q2.008-.393 3.564-4.013a37.275 37.275 0 0 0 2.029-6.547 23.3 23.3 0 0 0-2.076 1.913q-4.755 4.941-4.586 7.982.05.867 1.069.667z" class="cls-5" data-name="Path 9614"/>
        <path id="Path_9615" d="M802.035 131.27q-1.89.37-2.006-1.717a11 11 0 0 1 .121-2.165 4.387 4.387 0 0 1 1.6-2.573 6.807 6.807 0 0 1 3.26-1.6q1.469-.288 1.538.965l.01.179a8.185 8.185 0 0 1-.754 3.856 5.084 5.084 0 0 1-3.769 3.055zm1.158-10.175q-1.618.318-1.879-1.621l-.008-.15q-.431-7.693 4.761-27.611.922-3.556 3.65-4.09a2.953 2.953 0 0 1 2.335.281 1.753 1.753 0 0 1 .846 1.3q.045.8-2.505 9.956-1.492 5.3-2.6 10.066a43.276 43.276 0 0 0-1.229 8.109 3.594 3.594 0 0 1-1.194 2.494 4.529 4.529 0 0 1-2.177 1.271z" class="cls-5" data-name="Path 9615"/>
    </g>
</svg>
