<svg xmlns="http://www.w3.org/2000/svg" width="215.006" height="85" viewBox="0 0 215.006 85">
    <defs>
        <style>
            .cls-1{fill:#191919}.cls-3{fill:#fff}.cls-4{fill:#9c824a}.cls-5{fill:#ef0107}.cls-6{fill:#db0007}.cls-7{fill:#023474}
        </style>
    </defs>
    <g id="logo" transform="translate(-51.637 -695.369)">
        <path id="Path_10253" d="M56.483 780.369a4.572 4.572 0 0 1-3.523-1.427 5.238 5.238 0 0 1-1.323-3.71 5.548 5.548 0 0 1 1.348-3.917 4.733 4.733 0 0 1 3.661-1.461 4.478 4.478 0 0 1 3.452 1.418 5.261 5.261 0 0 1 1.308 3.711 5.564 5.564 0 0 1-1.341 3.938 4.646 4.646 0 0 1-3.582 1.448zm.077-9.033a2.831 2.831 0 0 0-2.274 1.043 4.774 4.774 0 0 0-.024 5.478 2.742 2.742 0 0 0 2.228 1.035 2.876 2.876 0 0 0 2.306-.986 4.116 4.116 0 0 0 .844-2.759 4.318 4.318 0 0 0-.819-2.818 2.776 2.776 0 0 0-2.261-.993z" class="cls-1" data-name="Path 10253"/>
        <path id="Path_10254" d="M68.764 771.457h-3.8v3.058h3.505v1.426h-3.508v4.259h-1.688v-10.177h5.491z" class="cls-1" data-name="Path 10254"/>
        <path id="Path_10255" d="M76.065 771.457h-3.8v3.058h3.5v1.426h-3.5v4.259h-1.691v-10.177h5.491z" class="cls-1" data-name="Path 10255"/>
        <path id="Path_10256" d="M79.607 780.2h-1.738v-10.177h1.738z" class="cls-1" data-name="Path 10256"/>
        <path id="Path_10257" d="M89.207 779.772a6.161 6.161 0 0 1-2.86.6 4.674 4.674 0 0 1-3.547-1.4 5.091 5.091 0 0 1-1.334-3.669 5.347 5.347 0 0 1 1.5-3.945 5.138 5.138 0 0 1 3.793-1.5 6.2 6.2 0 0 1 2.448.418v1.674a4.368 4.368 0 0 0-2.271-.61 3.559 3.559 0 0 0-2.678 1.058 3.881 3.881 0 0 0-1.026 2.823 3.7 3.7 0 0 0 .958 2.679 3.334 3.334 0 0 0 2.52 1 4.52 4.52 0 0 0 2.5-.68z" class="cls-1" data-name="Path 10257"/>
        <path id="Path_10258" d="M92.867 780.2H91.13v-10.177h1.737z" class="cls-1" data-name="Path 10258"/>
        <path id="Path_10259" d="M103.73 780.2h-1.851l-.915-2.59h-4l-.88 2.59h-1.847l3.811-10.175h1.9zm-3.214-3.966l-1.411-4.059a4.594 4.594 0 0 1-.136-.638h-.028a4.065 4.065 0 0 1-.142.638l-1.4 4.059z" class="cls-1" data-name="Path 10259"/>
        <path id="Path_10260" d="M110.762 780.2h-5.634v-10.177h1.689v8.749h3.945z" class="cls-1" data-name="Path 10260"/>
        <path id="Path_10261" d="M117.907 776.509v3.691h-1.682v-10.177h3.086a4.1 4.1 0 0 1 2.718.816 2.849 2.849 0 0 1 .965 2.3 3.179 3.179 0 0 1-1.008 2.427 3.828 3.828 0 0 1-2.725.944zm0-5.095v3.718H119a2.409 2.409 0 0 0 1.653-.5 1.794 1.794 0 0 0 .567-1.418q0-1.8-2.085-1.8z" class="cls-1" data-name="Path 10261"/>
        <path id="Path_10262" d="M132.075 780.2h-1.851l-.915-2.59h-4l-.879 2.59h-1.845l3.811-10.175h1.9zm-3.214-3.966l-1.411-4.059a4.629 4.629 0 0 1-.135-.638h-.029a4.064 4.064 0 0 1-.142.638l-1.4 4.059z" class="cls-1" data-name="Path 10262"/>
        <path id="Path_10263" d="M141.335 780.2h-1.972l-1.625-2.724a5.615 5.615 0 0 0-.43-.642 2.564 2.564 0 0 0-.425-.436 1.42 1.42 0 0 0-.472-.249 1.933 1.933 0 0 0-.575-.078h-.681v4.129h-1.682v-10.177h3.35a4.825 4.825 0 0 1 1.319.171 3.048 3.048 0 0 1 1.05.514 2.407 2.407 0 0 1 .7.859 2.69 2.69 0 0 1 .253 1.2 2.928 2.928 0 0 1-.161.99 2.58 2.58 0 0 1-.453.8 2.776 2.776 0 0 1-.71.6 3.5 3.5 0 0 1-.934.384v.029a2.573 2.573 0 0 1 .484.343c.136.126.267.255.389.388a4.26 4.26 0 0 1 .366.45c.121.168.254.362.4.585zm-6.18-8.8v3.3h1.4a2.069 2.069 0 0 0 .72-.122 1.629 1.629 0 0 0 .571-.346 1.582 1.582 0 0 0 .376-.554 1.9 1.9 0 0 0 .136-.731 1.457 1.457 0 0 0-.462-1.143 1.933 1.933 0 0 0-1.327-.411z" class="cls-1" data-name="Path 10263"/>
        <path id="Path_10264" d="M148.708 771.457h-2.923v8.743H144.1v-8.741h-2.92v-1.434h7.528z" class="cls-1" data-name="Path 10264"/>
        <path id="Path_10265" d="M158.826 780.2h-1.846l-4.86-7.478a3.364 3.364 0 0 1-.306-.589h-.042a10.417 10.417 0 0 1 .057 1.4v6.67H150.2v-10.18h1.965l4.7 7.3q.3.454.383.624h.029a9.071 9.071 0 0 1-.071-1.369v-6.557h1.626z" class="cls-1" data-name="Path 10265"/>
        <path id="Path_10266" d="M167.056 780.2h-5.712v-10.177h5.485v1.434h-3.8v2.88h3.5v1.427h-3.5v3.008h4.023z" class="cls-1" data-name="Path 10266"/>
        <path id="Path_10267" d="M176.727 780.2h-1.972l-1.625-2.724a5.615 5.615 0 0 0-.43-.642 2.491 2.491 0 0 0-.425-.436 1.425 1.425 0 0 0-.471-.249 1.944 1.944 0 0 0-.576-.078h-.68v4.129h-1.682v-10.177h3.349a4.825 4.825 0 0 1 1.319.171 3.062 3.062 0 0 1 1.051.514 2.428 2.428 0 0 1 .7.859 2.7 2.7 0 0 1 .252 1.2 2.954 2.954 0 0 1-.16.99 2.583 2.583 0 0 1-.454.8 2.775 2.775 0 0 1-.71.6 3.5 3.5 0 0 1-.933.384v.029a2.6 2.6 0 0 1 .483.343c.136.126.267.255.39.388a4.526 4.526 0 0 1 .366.45c.12.168.253.362.4.585zm-6.179-8.8v3.3h1.4a2.065 2.065 0 0 0 .72-.122 1.629 1.629 0 0 0 .571-.346 1.6 1.6 0 0 0 .377-.554 1.915 1.915 0 0 0 .135-.731 1.457 1.457 0 0 0-.462-1.143 1.933 1.933 0 0 0-1.327-.411z" class="cls-1" data-name="Path 10267"/>
        <path id="Path_10268" d="M186.1 780.369a4.572 4.572 0 0 1-3.523-1.427 5.238 5.238 0 0 1-1.323-3.71 5.548 5.548 0 0 1 1.348-3.917 4.732 4.732 0 0 1 3.66-1.461 4.479 4.479 0 0 1 3.453 1.418 5.261 5.261 0 0 1 1.308 3.711 5.564 5.564 0 0 1-1.341 3.938 4.647 4.647 0 0 1-3.582 1.448zm.077-9.033a2.831 2.831 0 0 0-2.274 1.043 4.774 4.774 0 0 0-.024 5.478 2.741 2.741 0 0 0 2.228 1.035 2.876 2.876 0 0 0 2.306-.986 4.116 4.116 0 0 0 .844-2.759 4.318 4.318 0 0 0-.819-2.818 2.776 2.776 0 0 0-2.26-.993z" class="cls-1" data-name="Path 10268"/>
        <path id="Path_10269" d="M198.382 771.457h-3.8v3.058h3.505v1.426h-3.505v4.259h-1.692v-10.177h5.492z" class="cls-1" data-name="Path 10269"/>
        <path id="Path_10270" d="M212.544 780.2h-1.851l-.915-2.59h-4l-.88 2.59h-1.844l3.811-10.175h1.9zm-3.214-3.966l-1.411-4.059a4.592 4.592 0 0 1-.136-.638h-.028a4.067 4.067 0 0 1-.142.638l-1.4 4.059z" class="cls-1" data-name="Path 10270"/>
        <path id="Path_10271" d="M221.8 780.2h-1.971l-1.626-2.724a5.616 5.616 0 0 0-.429-.642 2.564 2.564 0 0 0-.425-.436 1.44 1.44 0 0 0-.472-.249 1.937 1.937 0 0 0-.575-.078h-.681v4.129h-1.682v-10.177h3.349a4.827 4.827 0 0 1 1.32.171 3.065 3.065 0 0 1 1.05.514 2.407 2.407 0 0 1 .7.859 2.7 2.7 0 0 1 .252 1.2 2.928 2.928 0 0 1-.16.99 2.6 2.6 0 0 1-.453.8 2.763 2.763 0 0 1-.711.6 3.483 3.483 0 0 1-.933.384v.029a2.565 2.565 0 0 1 .483.343q.206.189.39.388a4.26 4.26 0 0 1 .366.45c.12.168.253.362.4.585zm-6.179-8.8v3.3h1.405a2.059 2.059 0 0 0 .719-.122 1.566 1.566 0 0 0 .948-.9 1.9 1.9 0 0 0 .135-.731 1.456 1.456 0 0 0-.461-1.143 1.933 1.933 0 0 0-1.327-.411z" class="cls-1" data-name="Path 10271"/>
        <path id="Path_10272" d="M222.521 779.794v-1.738a2.736 2.736 0 0 0 .556.383 4.329 4.329 0 0 0 .686.288 5.6 5.6 0 0 0 .723.18 3.92 3.92 0 0 0 .667.064 2.845 2.845 0 0 0 1.586-.355 1.167 1.167 0 0 0 .521-1.028 1.125 1.125 0 0 0-.174-.629 1.818 1.818 0 0 0-.485-.486 5.108 5.108 0 0 0-.735-.422c-.281-.135-.583-.275-.9-.423q-.519-.276-.965-.56a4.134 4.134 0 0 1-.778-.627 2.626 2.626 0 0 1-.518-.778 2.533 2.533 0 0 1-.187-1.015 2.34 2.34 0 0 1 .322-1.244 2.73 2.73 0 0 1 .852-.873 3.9 3.9 0 0 1 1.2-.511 5.719 5.719 0 0 1 1.376-.166 5.566 5.566 0 0 1 2.328.361v1.667a3.723 3.723 0 0 0-2.228-.623 4.006 4.006 0 0 0-.748.07 2.256 2.256 0 0 0-.668.234 1.459 1.459 0 0 0-.478.418 1.031 1.031 0 0 0-.184.619 1.164 1.164 0 0 0 .141.588 1.509 1.509 0 0 0 .416.454 4.211 4.211 0 0 0 .666.4c.262.131.567.27.912.423q.532.276 1 .582a4.7 4.7 0 0 1 .831.674 2.962 2.962 0 0 1 .567.819 2.4 2.4 0 0 1 .209 1.025 2.536 2.536 0 0 1-.313 1.306 2.5 2.5 0 0 1-.84.865 3.74 3.74 0 0 1-1.217.483 6.878 6.878 0 0 1-1.454.149 6.22 6.22 0 0 1-.628-.04c-.249-.025-.5-.064-.764-.112a7.14 7.14 0 0 1-.737-.182 2.327 2.327 0 0 1-.558-.24z" class="cls-1" data-name="Path 10272"/>
        <path id="Path_10273" d="M236.612 780.2H230.9v-10.177h5.485v1.434h-3.8v2.88h3.5v1.427h-3.5v3.008h4.023z" class="cls-1" data-name="Path 10273"/>
        <path id="Path_10274" d="M247.05 780.2h-1.85l-4.86-7.478a3.358 3.358 0 0 1-.3-.589H240a10.6 10.6 0 0 1 .057 1.4v6.67h-1.633v-10.18h1.966l4.7 7.3c.2.3.326.511.383.624h.028a9.247 9.247 0 0 1-.07-1.369v-6.557h1.625z" class="cls-1" data-name="Path 10274"/>
        <path id="Path_10275" d="M257.926 780.2h-1.851l-.915-2.59h-4l-.879 2.59h-1.845l3.811-10.175h1.9zm-3.214-3.966l-1.411-4.059a4.629 4.629 0 0 1-.135-.638h-.029a4.063 4.063 0 0 1-.142.638l-1.4 4.059z" class="cls-1" data-name="Path 10275"/>
        <path id="Path_10276" d="M264.958 780.2h-5.634v-10.177h1.689v8.749h3.945z" class="cls-1" data-name="Path 10276"/>
        <path id="Line_86" fill="none" stroke="#b7b7b7" stroke-miterlimit="282" stroke-width="0.5px" d="M0 0L0 52.242" data-name="Line 86" transform="translate(190.591 703.041)"/>
        <path id="Path_10277" d="M154.566 723.653c-9.179 12.943-16.114 23.781-16.114 23.781s7.95-10.14 17.132-23.08 16.113-23.78 16.113-23.78-7.95 10.138-17.131 23.079z" class="cls-1" data-name="Path 10277"/>
        <path id="Path_10278" d="M152.435 722.18c-7.461 10.513-13 19.385-13 19.385s6.554-8.17 14.012-18.683 13-19.385 13-19.385-6.555 8.171-14.012 18.683z" class="cls-1" data-name="Path 10278"/>
        <path id="Path_10279" d="M156.682 725.114c-7.456 10.513-13 19.386-13 19.386s6.555-8.171 14.013-18.685 12.995-19.384 12.995-19.384-6.549 8.169-14.008 18.683z" class="cls-1" data-name="Path 10279"/>
        <path id="Path_10280" d="M84.3 710.548h9.228v11.358l8.533-11.358h10.133L102.053 723.5l11.23 13.958H102.9l-9.373-12.252v12.254h-9.22z" class="cls-1" data-name="Path 10280"/>
        <path id="Path_10281" d="M114.63 737.46v-26.912h23.875v6.785h-14.652v4.5H136v6.277h-12.147v9.351z" class="cls-1" data-name="Path 10281"/>
        <path id="Path_10282" d="M140.346 710.548l9.028 12.345 4.937-6.873-4.185-5.472z" class="cls-1" data-name="Path 10282"/>
        <path id="Path_10283" d="M170.049 737.46l-9.029-12.344-4.936 6.87 4.185 5.474z" class="cls-1" data-name="Path 10283"/>
        <path id="Path_10284" d="M67.118 721.975v5.446h4.93a5.435 5.435 0 0 1-4.776 2.533 6.326 6.326 0 0 1-.133-12.646 6.567 6.567 0 0 1 5.324 2.208h8.218a14.037 14.037 0 1 0-5.486 15.533v2.411h6.09v-15.485z" class="cls-1" data-name="Path 10284"/>
        <path id="Path_10285" d="M60.427 742.835h-.595v1.4h.868c.489 0 .843-.193.843-.737.003-.584-.671-.663-1.116-.663z" class="cls-1" data-name="Path 10285"/>
        <path id="Path_10286" d="M76.139 742.835h-.977v1.253h.826c.648 0 1-.157 1-.6s-.361-.653-.849-.653z" class="cls-1" data-name="Path 10286"/>
        <path id="Path_10287" d="M54.925 739.33v10.392h73.837l5.938-10.392zm5.964 6.38h-1.057v1.963h-2.1v-6.31h3.083c1.839 0 2.728.833 2.728 2.129.003 1.359-.815 2.218-2.654 2.218zm18.261 1.963h-2.123a4.068 4.068 0 0 1-.107-1.1c0-.824-.141-1.1-1.118-1.1h-.64v2.2h-2.1v-6.31h3.021c2.132 0 2.834.569 2.834 1.8a1.462 1.462 0 0 1-1.075 1.542c.675.245 1.084.4 1.084 1.674 0 .823-.027 1.1.221 1.1zm11.936 0h-2.1v-6.31h2.1zm17.418 0h-1.883v-1.928l.027-.982.106-1.139h-.017l-1.164 4.049h-1.457l-1.164-4.049h-.018l.089.929.044.981v2.139h-1.883v-6.31h2.532l1.128 3.935 1.129-3.935h2.527zm15.427 0h-5.339v-6.31h5.215v1.472h-3.118v.9h2.638v1.472h-2.638v.991h3.242z" class="cls-1" data-name="Path 10287"/>
        <path id="Path_10288" d="M238.438 695.661a61.578 61.578 0 0 1 25.212 5.353 87.856 87.856 0 0 1 2.724 18.385v.249a45.063 45.063 0 0 1-1.942 13.2 43.106 43.106 0 0 1-5.605 11.664 46.921 46.921 0 0 1-8.837 9.651 51.941 51.941 0 0 1-11.553 7.339 51.941 51.941 0 0 1-11.553-7.339 46.921 46.921 0 0 1-8.837-9.651 43.105 43.105 0 0 1-5.605-11.664 45.065 45.065 0 0 1-1.943-13.2v-.248a87.81 87.81 0 0 1 2.726-18.385 61.57 61.57 0 0 1 25.211-5.353" class="cls-3" data-name="Path 10288"/>
        <path id="Path_10289" d="M238.43 722.148a10.413 10.413 0 1 0 10.412 10.412 10.413 10.413 0 0 0-10.412-10.412" class="cls-4" data-name="Path 10289"/>
        <path id="Path_10290" d="M237.743 724.07a8.512 8.512 0 0 0-6.32 3.649l4.848 2.8a2.961 2.961 0 0 1 1.472-.85z" class="cls-3" data-name="Path 10290"/>
        <path id="Path_10291" d="M232.229 727.561l3.957 2.281a3.381 3.381 0 0 1 1.012-.581v-4.568a7.825 7.825 0 0 0-4.968 2.868" class="cls-4" data-name="Path 10291"/>
        <path id="Path_10292" d="M239.121 724.07v5.6a2.953 2.953 0 0 1 1.47.851l4.849-2.8a8.513 8.513 0 0 0-6.319-3.65" class="cls-3" data-name="Path 10292"/>
        <path id="Path_10293" d="M239.675 724.7l-.008 4.578a3.277 3.277 0 0 1 1 .566l3.966-2.279a7.813 7.813 0 0 0-4.958-2.865" class="cls-4" data-name="Path 10293"/>
        <path id="Path_10294" d="M241.274 733.406l4.856 2.8a8.534 8.534 0 0 0 0-7.295l-4.852 2.8a2.948 2.948 0 0 1-.005 1.693" class="cls-3" data-name="Path 10294"/>
        <path id="Path_10295" d="M246.366 731.733a7.766 7.766 0 0 0-.5-2.035l-3.972 2.284a3.4 3.4 0 0 1 .05.57c0 .078 0 .155-.009.232 1.123-.306 2.305-.6 3.5-.851.292-.062.6-.129.925-.2" class="cls-4" data-name="Path 10295"/>
        <path id="Path_10296" d="M230.727 728.922a8.512 8.512 0 0 0 .015 7.3l4.842-2.811a2.955 2.955 0 0 1 0-1.7z" class="cls-3" data-name="Path 10296"/>
        <path id="Path_10297" d="M231.007 735.441l3.949-2.294a3.419 3.419 0 0 1 0-1.168l-3.962-2.274a7.835 7.835 0 0 0 .013 5.736" class="cls-4" data-name="Path 10297"/>
        <path id="Path_10298" d="M239.121 735.439v5.61a8.507 8.507 0 0 0 6.317-3.646l-4.858-2.8a2.954 2.954 0 0 1-1.459.841" class="cls-3" data-name="Path 10298"/>
        <path id="Path_10299" d="M238.429 731.044a1.513 1.513 0 1 0 1.513 1.513 1.513 1.513 0 0 0-1.513-1.513" class="cls-3" data-name="Path 10299"/>
        <path id="Path_10300" d="M237.743 735.44a2.959 2.959 0 0 1-1.461-.842l-4.857 2.8c.11.161.228.317.349.469a8.506 8.506 0 0 0 5.969 3.178z" class="cls-3" data-name="Path 10300"/>
        <path id="Path_10301" d="M238.443 697.183a59.528 59.528 0 0 0-18.633 2.935 115.786 115.786 0 0 0-2.924 17.9 45.089 45.089 0 0 0 1.263 14.155 43.464 43.464 0 0 0 2.546 7.241 27.141 27.141 0 0 0 3.573-2.276 18.034 18.034 0 0 0 3.288-3.319 11.076 11.076 0 0 1 .1-3.2c-2.251.079-3.531.108-4.535.108a3.2 3.2 0 0 1-2.852-2.135h-.569c-.428 0-1.152-.365-1.152-1.735s.724-1.735 1.152-1.735h.565a3.209 3.209 0 0 1 2.854-2.14h9.981a10.913 10.913 0 0 1 5.343-1.387z" class="cls-5" data-name="Path 10301"/>
        <path id="Path_10302" d="M238.438 743.516a10.953 10.953 0 0 1-8.7-4.28 37.364 37.364 0 0 1-7.474 3.253 45.218 45.218 0 0 0 7.253 9.52 53.64 53.64 0 0 0 8.916 7.183z" class="cls-5" data-name="Path 10302"/>
        <path id="Path_10303" d="M232.231 737.563l3.967-2.3a3.371 3.371 0 0 0 1 .573l-.01 4.585a7.809 7.809 0 0 1-4.958-2.862" class="cls-5" data-name="Path 10303"/>
        <path id="Path_10304" d="M238.439 721.6a10.916 10.916 0 0 1 5.347 1.385h16.277c.033-1.138.014-2.416-.01-3.625-.1-4.985-1.544-13.4-2.964-19.235a60.15 60.15 0 0 0-18.646-2.963z" class="cls-6" data-name="Path 10304"/>
        <path id="Path_10305" d="M238.438 759.192a53.833 53.833 0 0 0 8.923-7.19 45.283 45.283 0 0 0 7.588-10.129 42.573 42.573 0 0 0 4.29-11.888c.064-.317.125-.619.182-.936l-4.613.33a2.1 2.1 0 0 1-1.569 1.3h.007c-.031.008-1.722.428-3.9.93.027.313.041.631.041.951a10.952 10.952 0 0 1-10.947 10.958z" class="cls-6" data-name="Path 10305"/>
        <path id="Path_10306" d="M239.665 740.426a7.842 7.842 0 0 0 4.972-2.864l-3.984-2.292a3.3 3.3 0 0 1-.988.577s.007 4.579 0 4.579" class="cls-6" data-name="Path 10306"/>
        <path id="Path_10307" d="M246.4 732.566c0-.108 0-.216-.008-.324-.3.066-.587.128-.858.184-1.212.256-2.383.552-3.429.838l3.754 2.167a7.811 7.811 0 0 0 .541-2.865" class="cls-6" data-name="Path 10307"/>
        <path id="Path_10308" d="M242.4 714.728c-.01.214-.066.931-.084 1.146h3.156a18.121 18.121 0 0 1-.293-2.887l-.048-1.82a.564.564 0 0 1 .142-.422.488.488 0 0 1 .344-.153c.147 0 .394 0 .413.51l.069 1.936a17.747 17.747 0 0 1-.071 2.836h3.072c-.051-.264-.139-.9-.159-1.074a2.36 2.36 0 0 0 2.32 1.237 2.868 2.868 0 0 0 1.541-.469l.159.306h5.682a18.762 18.762 0 0 1-.509-2.922l-.777-6.364-2.928-.473a19.155 19.155 0 0 1 .512 2.891l.438 4.066a19.523 19.523 0 0 1 .153 2.333v.1l-.117-.287a7.238 7.238 0 0 1-.4-2.131l-.122-1.3c-.154-2.067-1.292-3.009-3.759-3.009a9.857 9.857 0 0 0-2.1.288l.172 2.353.657-.4a2.663 2.663 0 0 1 1.452-.472.755.755 0 0 1 .765.415 6.127 6.127 0 0 0-1.583.464 2.883 2.883 0 0 0-1.67 1.629v-.058l-.1-2.156a2.155 2.155 0 0 0-2.265-2.263 2.767 2.767 0 0 0-1.652.521 1.707 1.707 0 0 0-.088-.235l-.119-.25-2.527-.116a19.445 19.445 0 0 1 .3 2.221 2.972 2.972 0 0 0-1.172-1.891 3.249 3.249 0 0 0-1.871-.549 3.619 3.619 0 0 0-2.533 1.054 3.793 3.793 0 0 0-1.027 2.593 2.977 2.977 0 0 0-.95-.667l-1.161-.554-.058-.027c-.279-.13-.288-.175-.283-.251.011-.118.277-.247.66-.247a3.607 3.607 0 0 1 1.726.6l.047-2.078a4.334 4.334 0 0 0-1.816-.339 4.159 4.159 0 0 0-1.974.464 3.058 3.058 0 0 0-.533.38l.032-.61a2.507 2.507 0 0 0-2.272.718 3.716 3.716 0 0 0-.125-.5l-2.729.167a9.766 9.766 0 0 1 .172 2.827l-.051 1.042-.008.119c-.029.545-.062 1.1-.116 1.621-.227-.706-.477-1.667-.667-2.468l-1.348-6.066-3.848.551a2.14 2.14 0 0 1 .113.466 4.276 4.276 0 0 1-.343 1.846c-.618 1.8-1.508 4.455-2.356 6.29-.118.257-.322.678-.322.678h3a9 9 0 0 1 .43-1.809l2-.053a12.9 12.9 0 0 1 .244 1.414l.032.448h6.031a16.661 16.661 0 0 1-.047-3 2.6 2.6 0 0 1 .574-1.745 1.158 1.158 0 0 1 .818-.356 2.08 2.08 0 0 0 1.372 1.985l1.179.6c.423.222.415.335.41.411-.018.226-.359.314-.673.308a3.917 3.917 0 0 1-2.421-1.429l-.051 2.687a5.211 5.211 0 0 0 2.517.581c1.366 0 2.833-.6 3.229-1.87a3.939 3.939 0 0 0 6.193.679m-20.677-2.691c.156-.447.28-.8.545-1.568l.324 1.54-.869.028m16.847-.674v-.022c0-.914.342-1.272.664-1.3.1-.008.355-.032.472.4a1.514 1.514 0 0 1 .065.387c0 .25-.133.3-.291.353h-.009l-.9.343c0-.052-.006-.1-.006-.158m3.137 1.867a2.373 2.373 0 0 1-1.679.794 1.243 1.243 0 0 1-1.081-.785l3.446-1.294.017 1.089v.005c.014.368.018.728.011 1.084v.013zm10.269.863a.559.559 0 0 1-.645-.6c0-.271.091-.673.927-.9l.041.572.019.26c.012.183.023.35.042.533a.723.723 0 0 1-.384.129" class="cls-4" data-name="Path 10308"/>
        <path id="Path_10309" d="M235.278 709.016a3.935 3.935 0 0 0-1.34-.193 3.676 3.676 0 0 0-1.743.405 1.964 1.964 0 0 0-1.079 1.484 1.59 1.59 0 0 0 1.106 1.627c.465.233.906.458 1.186.6.375.2.7.436.665.87s-.439.739-1.137.739a3.306 3.306 0 0 1-1.976-.855l-.025 1.354a5 5 0 0 0 2.034.395c1.27 0 2.838-.581 2.866-2.064a1.8 1.8 0 0 0-1.212-1.706c-.458-.213-.942-.446-1.168-.556-.21-.1-.648-.265-.61-.745.037-.458.56-.676 1.126-.676a2.786 2.786 0 0 1 1.289.322z" class="cls-3" data-name="Path 10309"/>
        <path id="Path_10310" d="M223.951 706.574l-2.907.416a4.8 4.8 0 0 1-.356 2.064c-.612 1.785-1.6 4.653-2.379 6.347h1.834a9.958 9.958 0 0 1 .5-1.8l2.718-.072a16.475 16.475 0 0 1 .34 1.871h2.427a25.062 25.062 0 0 1-.927-3.193zm-2.907 5.959l1.331-3.828.789 3.757z" class="cls-3" data-name="Path 10310"/>
        <path id="Path_10311" d="M230.963 709.027l-.064 1.289a1.655 1.655 0 0 0-1.418.485 3.011 3.011 0 0 0-.7 2.044 18.654 18.654 0 0 0-.007 2.556h-2.079a22.363 22.363 0 0 0 .23-2.536l.053-1.039a10.921 10.921 0 0 0-.079-2.419l1.813-.112a3.888 3.888 0 0 1 .106 1.165c.793-1.191 1.568-1.46 2.147-1.433" class="cls-3" data-name="Path 10311"/>
        <path id="Path_10312" d="M256.931 707l-1.873-.3a17.77 17.77 0 0 1 .353 2.25l.439 4.068a19.725 19.725 0 0 1 .155 2.387h2.029a20.278 20.278 0 0 1-.369-2.387z" class="cls-3" data-name="Path 10312"/>
        <path id="Path_10313" d="M248.547 715.4a19.7 19.7 0 0 1-.2-2.389l-.1-2.152a1.7 1.7 0 0 0-1.8-1.822 2.36 2.36 0 0 0-1.932.97 4.21 4.21 0 0 0-.226-.946l-1.649-.076a17.661 17.661 0 0 1 .218 2.444l.024 1.582a19.091 19.091 0 0 1-.053 2.389h2.071a19.7 19.7 0 0 1-.2-2.389l-.048-1.825a.99.99 0 0 1 .96-1.068c.577-.007.862.375.884.956l.067 1.937a19.691 19.691 0 0 1-.02 2.389z" class="cls-3" data-name="Path 10313"/>
        <path id="Path_10314" d="M254.977 715.4a7.834 7.834 0 0 1-.434-2.272l-.121-1.3c-.116-1.534-.76-2.585-3.3-2.585a8.239 8.239 0 0 0-1.6.185l.086 1.179a3.16 3.16 0 0 1 1.7-.543 1.187 1.187 0 0 1 1.317 1.286 6.175 6.175 0 0 0-1.955.5 2.12 2.12 0 0 0-1.494 2.032c.083 1.174.969 1.686 2.086 1.686a2.43 2.43 0 0 0 1.746-.764 2.643 2.643 0 0 0 .235.6zm-3.007-.843a.985.985 0 0 1-1.114-1.036c-.018-.675.444-1.272 1.831-1.5l.08 1.107c.029.38.039.65.086 1.016a1.225 1.225 0 0 1-.883.413" class="cls-3" data-name="Path 10314"/>
        <path id="Path_10315" d="M240.93 709.205a2.777 2.777 0 0 0-1.6-.463 3.112 3.112 0 0 0-3.09 3.448 3.37 3.37 0 0 0 5.8 2.229l-.416-.527a2.375 2.375 0 0 1-1.609.6 1.878 1.878 0 0 1-1.688-1.529l3.731-1.4a3 3 0 0 0-1.128-2.36m-1.293 2.414l-1.483.569a5.976 5.976 0 0 1-.059-.822c-.01-1.541.82-1.772 1.092-1.8a.891.891 0 0 1 .972.742c.164.6.124 1.078-.522 1.309" class="cls-3" data-name="Path 10315"/>
        <path id="Path_10316" d="M228.529 752.014a45.176 45.176 0 0 1-7.628-10.066 42.477 42.477 0 0 1-4.346-11.841 47.247 47.247 0 0 1-.861-12.946 116.114 116.114 0 0 1 2.776-16.587q-1.983.7-3.928 1.536a87.1 87.1 0 0 0-2.493 17.273 43.564 43.564 0 0 0 1.875 12.983 40.146 40.146 0 0 0 5.4 11.245 45.362 45.362 0 0 0 8.545 9.332 54.21 54.21 0 0 0 10.562 6.793 54.264 54.264 0 0 1-9.906-7.722" class="cls-7" data-name="Path 10316"/>
        <path id="Path_10317" d="M248.342 752.015a45.122 45.122 0 0 0 7.628-10.066 42.4 42.4 0 0 0 4.346-11.841 47.245 47.245 0 0 0 .862-12.945 116.519 116.519 0 0 0-2.778-16.593c1.322.465 2.639.979 3.934 1.538a87.022 87.022 0 0 1 2.489 17.276 43.6 43.6 0 0 1-1.874 12.984 41.586 41.586 0 0 1-5.4 11.244 45.392 45.392 0 0 1-8.549 9.332 54.248 54.248 0 0 1-10.563 6.794 54.278 54.278 0 0 0 9.906-7.723" class="cls-7" data-name="Path 10317"/>
        <path id="Path_10318" d="M245.4 759.488a1.18 1.18 0 1 1-1.171 1.176 1.16 1.16 0 0 1 1.171-1.176zm0 .182a1 1 0 0 0 0 1.993 1 1 0 0 0 0-1.993zm-.22 1.68h-.209v-1.313a2.291 2.291 0 0 1 .372-.032.694.694 0 0 1 .407.1.318.318 0 0 1 .121.273.326.326 0 0 1-.257.318v.011c.115.021.193.126.22.319a1.081 1.081 0 0 0 .084.325h-.22a.988.988 0 0 1-.089-.335.246.246 0 0 0-.283-.23h-.146zm0-.728h.152c.172 0 .319-.063.319-.224 0-.116-.084-.231-.319-.231a1.036 1.036 0 0 0-.152.011z" class="cls-1" data-name="Path 10318"/>
        <path id="Path_10319" d="M223.107 730.19a2.747 2.747 0 0 1-2.472-2.135h-.947c-.244 0-.607-.295-.607-1.19s.363-1.19.607-1.19h.946a2.751 2.751 0 0 1 2.473-2.14h9.106a10.968 10.968 0 0 0-4.458 6.542c-2.017.071-3.563.113-4.648.113" class="cls-4" data-name="Path 10319"/>
        <path id="Path_10320" d="M263.878 700.8a62.328 62.328 0 0 0-50.879 0 87.939 87.939 0 0 0-2.765 18.576 45.383 45.383 0 0 0 1.954 13.522 43.384 43.384 0 0 0 5.639 11.736 47.211 47.211 0 0 0 8.887 9.707 52.38 52.38 0 0 0 11.724 7.425 52.4 52.4 0 0 0 11.724-7.425 47.212 47.212 0 0 0 8.887-9.707 43.384 43.384 0 0 0 5.639-11.736 45.35 45.35 0 0 0 1.954-13.522 87.991 87.991 0 0 0-2.764-18.576m-6.331 42.811A45.288 45.288 0 0 1 249 752.94a54.2 54.2 0 0 1-10.566 6.794 54.221 54.221 0 0 1-10.561-6.794 45.311 45.311 0 0 1-8.545-9.332c-.185-.27-.365-.544-.543-.819a33.527 33.527 0 0 0 10.635-4 10.886 10.886 0 0 1-1.766-4.235 17.948 17.948 0 0 1-3.091 3.037 22.869 22.869 0 0 1-6.745 3.627 41.442 41.442 0 0 1-3.894-8.858 43.539 43.539 0 0 1-1.875-12.981 87.117 87.117 0 0 1 2.493-17.274 60.452 60.452 0 0 1 47.79 0 87.043 87.043 0 0 1 2.493 17.274q.009 2.1-.169 4.155h-20.017a10.948 10.948 0 0 1 4.639 7.529l3.817-.909a1.562 1.562 0 0 0 1.293-1.294l9.6-.65a42.178 42.178 0 0 1-1.041 4.151 41.5 41.5 0 0 1-5.4 11.245" class="cls-4" data-name="Path 10320"/>
        <path id="Path_10321" d="M239.4 732.557a.975.975 0 1 0-.975.975.977.977 0 0 0 .975-.975" class="cls-4" data-name="Path 10321"/>
    </g>
</svg>
