<svg xmlns="http://www.w3.org/2000/svg" width="18.767" height="18.586" viewBox="0 0 18.767 18.586">
    <path id="instagram" fill="#0aae8b" d="M215.076 388.424h-9.412a2.706 2.706 0 0 0-2.712 2.689v9.333a2.71 2.71 0 0 0 2.712 2.708h9.412a2.715 2.715 0 0 0 2.732-2.708v-9.333a2.71 2.71 0 0 0-2.732-2.689zm4.677 11.982a4.7 4.7 0 0 1-4.736 4.676h-9.3a4.715 4.715 0 0 1-4.736-4.676v-9.235a4.715 4.715 0 0 1 4.736-4.676h9.3a4.7 4.7 0 0 1 4.736 4.676zm-9.374-7.423a2.806 2.806 0 1 0 2.83 2.806 2.818 2.818 0 0 0-2.83-2.806zm0 7.657a4.851 4.851 0 1 1 4.893-4.851 4.873 4.873 0 0 1-4.893 4.851zm5.051-8.709a1.144 1.144 0 0 1-1.16-1.149 1.17 1.17 0 0 1 1.16-1.15 1.183 1.183 0 0 1 1.16 1.15 1.157 1.157 0 0 1-1.16 1.149z" transform="translate(-200.986 -386.495)"/>
</svg>
