<svg xmlns="http://www.w3.org/2000/svg" width="17.923" height="18.014" viewBox="0 0 17.923 18.014">
    <path id="icon" fill="#0aae8b" d="M13.377 18.011c-.329-.055-.661-.1-.987-.168a12.872 12.872 0 0 1-3.467-1.42 18.457 18.457 0 0 1-4.564-3.575A18.292 18.292 0 0 1 .56 6.924 7.726 7.726 0 0 1 0 4.389a3.05 3.05 0 0 1 .839-2.332C1.343 1.54 1.831 1 2.374.534a1.759 1.759 0 0 1 2.561.033c.855.8 1.682 1.646 2.477 2.5a1.7 1.7 0 0 1 0 2.313c-.423.48-.891.918-1.338 1.377-.041.038-.084.072-.159.139a13.031 13.031 0 0 0 5.139 5.124l1.067-1.079a2.7 2.7 0 0 1 .961-.721 1.612 1.612 0 0 1 1.756.312q1.344 1.279 2.619 2.628a1.716 1.716 0 0 1 .046 2.289c-.538.634-1.134 1.235-1.737 1.816a2.68 2.68 0 0 1-1.557.694 1.181 1.181 0 0 0-.123.036zm.267-1.083a2.057 2.057 0 0 0 1.6-.629c.4-.423.817-.836 1.225-1.254a1.962 1.962 0 0 0 .149-.168.738.738 0 0 0 0-1.04.137.137 0 0 0-.019-.017c-.329-.356-.677-.692-1.019-1.035-.444-.444-.884-.891-1.333-1.329a.722.722 0 0 0-1.019-.06.192.192 0 0 0-.031.031c-.067.055-.127.118-.19.18-.428.425-.85.855-1.28 1.276a.815.815 0 0 1-1.021.171c-.262-.132-.521-.264-.774-.413a13.361 13.361 0 0 1-2.989-2.491 10.755 10.755 0 0 1-1.974-2.806.912.912 0 0 1 .24-1.264c.44-.428.91-.882 1.345-1.343a.69.69 0 0 0 .053-.971l-.036-.036c-.053-.062-.108-.12-.163-.178L4.3 1.434a.8.8 0 0 0-1.3 0c-.452.449-.877.846-1.288 1.295a2.426 2.426 0 0 0-.48.721A3.069 3.069 0 0 0 1.2 5.216 10.62 10.62 0 0 0 2.141 7.8a17.624 17.624 0 0 0 2.729 3.965 17.214 17.214 0 0 0 6.89 4.757 6.248 6.248 0 0 0 1.883.4z" transform="translate(.006 .003)"/>
</svg>
