<svg xmlns="http://www.w3.org/2000/svg" width="20" height="20" viewBox="0 0 20 20">
    <defs>
        <style>
            .cls-2{fill:#0aae8b;fill-rule:evenodd}
        </style>
    </defs>
    <g id="icon" transform="translate(-567 -5090.801)">
        <path id="icon_bg" fill="none" d="M0 0H20V20H0z" transform="translate(567 5090.801)"/>
        <path id="Path_9631" d="M12.474 1016.049a.464.464 0 0 0-.465.461.469.469 0 0 0 .412.486 15.155 15.155 0 0 1 3.58.78 3.456 3.456 0 0 1 .928.5c.184.156.209.251.209.287s-.078.227-.449.454a6.65 6.65 0 0 1-1.717.653 24.98 24.98 0 0 1-5.947.636 24.974 24.974 0 0 1-5.949-.634 6.654 6.654 0 0 1-1.715-.653c-.371-.227-.449-.407-.449-.454s.02-.122.189-.27a3.181 3.181 0 0 1 .857-.482 14.107 14.107 0 0 1 3.357-.775.472.472 0 0 0 .4-.521.457.457 0 0 0-.5-.422h-.014a14.739 14.739 0 0 0-3.576.833 3.889 3.889 0 0 0-1.111.641 1.35 1.35 0 0 0-.51 1 1.554 1.554 0 0 0 .9 1.272 7.3 7.3 0 0 0 1.955.756 25.616 25.616 0 0 0 6.167.662 25.716 25.716 0 0 0 6.163-.662 7.273 7.273 0 0 0 1.955-.756 1.557 1.557 0 0 0 .9-1.274 1.369 1.369 0 0 0-.545-1.026 4.109 4.109 0 0 0-1.18-.653 15.811 15.811 0 0 0-3.8-.833.191.191 0 0 0-.045-.006z" class="cls-2" data-name="Path 9631" transform="translate(567.986 4088.674)"/>
        <path id="Path_9632" d="M33.635 966.17a2.83 2.83 0 1 0 2.817 2.83 2.832 2.832 0 0 0-2.817-2.83zm0 .947a1.883 1.883 0 1 1-1.88 1.883 1.863 1.863 0 0 1 1.88-1.883z" class="cls-2" data-name="Path 9632" transform="translate(543.377 4128.502)"/>
        <path id="Path_9633" d="M20.844 952.36a5.836 5.836 0 0 0-5.794 5.867 12.055 12.055 0 0 0 2.005 5.549 30.643 30.643 0 0 0 3.464 4.76.433.433 0 0 0 .624.022.374.374 0 0 0 .028-.029 33.72 33.72 0 0 0 3.5-4.835 11.749 11.749 0 0 0 1.961-5.467 5.833 5.833 0 0 0-5.792-5.867zm0 .9a4.929 4.929 0 0 1 4.909 4.966 11.369 11.369 0 0 1-1.835 5 33.019 33.019 0 0 1-3.08 4.319 30.777 30.777 0 0 1-3.026-4.239 11.753 11.753 0 0 1-1.879-5.082 4.932 4.932 0 0 1 4.911-4.966z" class="cls-2" data-name="Path 9633" transform="translate(556.168 4139.537)"/>
    </g>
</svg>
