<svg xmlns="http://www.w3.org/2000/svg" width="19.709" height="16.018" viewBox="0 0 19.709 16.018">
    <path id="twitter" fill="#0aae8b" d="M-159.271 18.482c.008.173.012.348.012.523a11.426 11.426 0 0 1-11.5 11.505 11.437 11.437 0 0 1-6.2-1.817 8.14 8.14 0 0 0 .964.057 8.115 8.115 0 0 0 5.023-1.731 4.048 4.048 0 0 1-3.777-2.808 4.048 4.048 0 0 0 .761.072 4.033 4.033 0 0 0 1.065-.142 4.046 4.046 0 0 1-3.244-3.965v-.051a4.015 4.015 0 0 0 1.831.506 4.043 4.043 0 0 1-1.8-3.366 4.026 4.026 0 0 1 .547-2.033 11.479 11.479 0 0 0 8.335 4.225 4.036 4.036 0 0 1-.105-.922 4.044 4.044 0 0 1 4.044-4.044 4.038 4.038 0 0 1 2.952 1.277 8.093 8.093 0 0 0 2.568-.981 4.055 4.055 0 0 1-1.778 2.237 8.068 8.068 0 0 0 2.323-.636 8.2 8.2 0 0 1-2.021 2.094z" transform="translate(176.962 -14.493)"/>
</svg>
