<svg xmlns="http://www.w3.org/2000/svg" width="150" height="150" viewBox="0 0 150 150">
    <defs>
        <style>
            .cls-2{fill:#0aae8b}
        </style>
    </defs>
    <g id="icon" transform="translate(-885 -1238)">
        <g id="Ellipse_48" fill="#fff" stroke="#d5d5d5" stroke-dasharray="4 3" stroke-width="2px" data-name="Ellipse 48" transform="translate(885 1238)">
            <circle cx="75" cy="75" r="75" stroke="none"/>
            <circle cx="75" cy="75" r="74" fill="none"/>
        </g>
        <path id="Path_10335" d="M1854.8 753.46a26.646 26.646 0 0 1-1.252-20.233c1.173-3.614.152-6.975-2.723-8.708a7.464 7.464 0 0 0-9.369 1.186 10.706 10.706 0 0 0-1.822 3.575 39.223 39.223 0 0 0-1.933 10.114c-.015.236-.054.471-.106.906l-4.237-2.373-13.574-7.6c-5.41-3.027-10.81-6.071-16.237-9.067a6.1 6.1 0 0 0-6.808.355 6.506 6.506 0 0 0 .486 11c2.2 1.27 4.433 2.491 6.651 3.734l.977.547c-3.253 2.7-3.926 5.846-1.863 9.471-3.581 2.186-4.788 6.181-2.273 9.989a20.289 20.289 0 0 0-2.265 2.551 6.343 6.343 0 0 0 2.306 9.017c8.5 4.785 16.984 9.587 25.536 14.271a20.778 20.778 0 0 0 25.722-5.195c5.678-7.218 6.814-15.037 2.784-23.54zm-2.7 17.23a17.668 17.668 0 0 1-24.355 8.477c-8.431-4.618-16.791-9.366-25.176-14.066a3.148 3.148 0 1 1 3.059-5.5c2.407 1.335 4.806 2.681 7.212 4.017 1.23.682 2.175.515 2.7-.463.5-.94.155-1.769-1.042-2.441-3.31-1.858-6.63-3.7-9.934-5.569a3.16 3.16 0 1 1 3.063-5.513c3.233 1.921 6.545 3.708 9.834 5.533a3.106 3.106 0 0 0 1.523.607 2.81 2.81 0 0 0 1.735-.817 1.352 1.352 0 0 0-.245-1.889 6.8 6.8 0 0 0-1.36-.958c-3.9-2.168-7.806-4.307-11.694-6.487a5.6 5.6 0 0 1-1.617-1.275 3.089 3.089 0 0 1 .186-3.947 3.231 3.231 0 0 1 4.1-.546c4.292 2.388 8.571 4.8 12.859 7.192 1.085.606 2.014.43 2.537-.453.547-.925.216-1.869-.9-2.5q-3.825-2.152-7.658-4.289-8.889-4.978-17.777-9.959a3.2 3.2 0 0 1-1.786-3.637c.532-2.178 2.763-3.048 4.886-1.865q8.946 4.986 17.873 10l-.017.03c6.047 3.385 12.083 6.79 18.159 10.122a2.317 2.317 0 0 0 1.919.025 2.1 2.1 0 0 0 .783-1.623 40 40 0 0 1 2.063-13.338 3.981 3.981 0 0 1 5.146-2.624 3.676 3.676 0 0 1 2.266 4.981 29.736 29.736 0 0 0-1.354 13.585 33.01 33.01 0 0 0 3.089 10.349c2.402 4.93 2.076 9.888-.084 14.841z" class="cls-2" data-name="Path 10335" transform="translate(-865.932 572.415)"/>
        <path id="Path_10336" d="M1818.117 720.624a2.224 2.224 0 1 0 3.828-2.266l-8.728-14.745a2.224 2.224 0 1 0-3.828 2.266z" class="cls-2" data-name="Path 10336" transform="translate(-865.932 572.415)"/>
        <path id="Path_10337" d="M1837.027 721.405a2.225 2.225 0 0 0 3.047-.781l8.729-14.745a2.224 2.224 0 1 0-3.828-2.266l-8.729 14.745a2.225 2.225 0 0 0 .781 3.047z" class="cls-2" data-name="Path 10337" transform="translate(-865.932 572.415)"/>
        <path id="Path_10338" d="M1829.1 720.737a2.224 2.224 0 0 0 2.224-2.224v-21.7a2.224 2.224 0 0 0-4.448 0v21.7a2.224 2.224 0 0 0 2.224 2.224z" class="cls-2" data-name="Path 10338" transform="translate(-865.932 572.415)"/>
    </g>
</svg>
