<svg xmlns="http://www.w3.org/2000/svg" width="150" height="150" viewBox="0 0 150 150">
    <defs>
        <style>
            .cls-2{fill:#0aae8b}
        </style>
    </defs>
    <g id="icon" transform="translate(-585 -1238)">
        <g id="Ellipse_48" fill="#fff" stroke="#d5d5d5" stroke-dasharray="4 3" stroke-width="2px" data-name="Ellipse 48" transform="translate(585 1238)">
            <circle cx="75" cy="75" r="75" stroke="none"/>
            <circle cx="75" cy="75" r="74" fill="none"/>
        </g>
        <path id="Path_10323" d="M1397.646 487.523c-.084.108-.21.262-.329.421-1.991 2.656-3.972 5.319-5.985 7.959a2.015 2.015 0 0 1-.963.687q-8.244 2.739-16.508 5.417a1.083 1.083 0 0 0-.762.735q-6.744 17.8-13.509 35.587c-.521 1.37-1.042 2.741-1.569 4.123-.667 1.754.524 3.253 2.869 2.339 19.857-6.766 38.874-13.973 38.874-13.973s1.609-.328 1.82-.969q2.738-8.28 5.518-16.544a1.959 1.959 0 0 1 .665-.927c2.652-2.021 5.327-4.013 7.994-6.014.166-.125.324-.261.4-.32zm5.714 25.07c-1.619 4.81-3.21 9.629-4.833 14.438a1.156 1.156 0 0 1-.6.623q-15.008 5.7-30.03 11.352c-.162.062-.332.1-.669.207.252-.27.378-.415.513-.55q7.154-7.158 14.3-14.32a.765.765 0 0 1 1.077-.16 7.819 7.819 0 0 0 8.4-1.17 7.329 7.329 0 0 0 2.408-7.945 7.839 7.839 0 0 0-6.222-5.622 7.365 7.365 0 0 0-7.587 3.108 7.557 7.557 0 0 0-.669 8.086c.084.179.181.351.259.5l-15.268 15.269c.06-.2.1-.354.156-.5q5.738-14.994 11.468-29.991c.183-.48.477-.613 1.024-.806 6.055-2.139 8.5-2.763 13.961-4.654a.864.864 0 0 1 1.084.211q5.481 5.508 10.989 10.989a.781.781 0 0 1 .239.935zm-20.822 4.273a3.857 3.857 0 1 1 4.358 4.285 3.885 3.885 0 0 1-4.358-4.285zm23.358-7.927l-11.139-11.139 3.313-4.431 12.252 12.256z" class="cls-2" data-name="Path 10323" transform="translate(-706.159 788.477)"/>
        <path id="Path_10324" d="M1339.057 547.4h-20.782a2.116 2.116 0 1 0 0 4.231h20.782a2.116 2.116 0 0 0 0-4.231z" class="cls-2" data-name="Path 10324" transform="translate(-706.159 788.477)"/>
        <path id="Path_10325" d="M1347.519 547.4a2.116 2.116 0 1 0 2.116 2.116 2.115 2.115 0 0 0-2.116-2.116z" class="cls-2" data-name="Path 10325" transform="translate(-706.159 788.477)"/>
        <path id="Path_10326" d="M1353.913 547.4a2.116 2.116 0 1 0 2.116 2.116 2.116 2.116 0 0 0-2.116-2.116z" class="cls-2" data-name="Path 10326" transform="translate(-706.159 788.477)"/>
    </g>
</svg>
